<mxfile host="65bd71144e">
    <diagram id="4JuFUBZUT7yq_IRg2eSc" name="Page-1">
        <mxGraphModel dx="1348" dy="1868" grid="0" gridSize="10" guides="1" tooltips="1" connect="1" arrows="1" fold="1" page="1" pageScale="1" pageWidth="850" pageHeight="1100" math="0" shadow="0">
            <root>
                <mxCell id="0"/>
                <mxCell id="1" parent="0"/>
                <mxCell id="2" style="edgeStyle=orthogonalEdgeStyle;rounded=0;orthogonalLoop=1;jettySize=auto;html=1;" parent="1" source="3" target="14" edge="1">
                    <mxGeometry relative="1" as="geometry"/>
                </mxCell>
                <mxCell id="3" value="&lt;font style=&quot;font-size: 21px;&quot;&gt;&lt;b&gt;Blogs&lt;/b&gt;&lt;/font&gt;" style="swimlane;childLayout=stackLayout;horizontal=1;startSize=50;horizontalStack=0;rounded=1;fontSize=14;fontStyle=0;strokeWidth=2;resizeParent=0;resizeLast=1;shadow=0;dashed=0;align=center;arcSize=4;whiteSpace=wrap;html=1;" parent="1" vertex="1">
                    <mxGeometry x="440" y="270" width="391" height="300" as="geometry"/>
                </mxCell>
                <mxCell id="4" value="&lt;p style=&quot;border-color: var(--border-color); line-height: 80%;&quot;&gt;{&lt;/p&gt;&lt;p style=&quot;border-color: var(--border-color); line-height: 80%;&quot;&gt;&amp;nbsp; &quot;_id&quot;: ObjectId(&quot;blog_id&quot;),&lt;/p&gt;&lt;p style=&quot;border-color: var(--border-color); line-height: 80%;&quot;&gt;&amp;nbsp; &quot;title&quot;: &quot;Introduction to MongoDB&quot;,&lt;/p&gt;&lt;p style=&quot;border-color: var(--border-color); line-height: 80%;&quot;&gt;&amp;nbsp; &quot;content&quot;: &quot;MongoDB is a NoSQL database...&quot;,&lt;/p&gt;&lt;p style=&quot;border-color: var(--border-color); line-height: 80%;&quot;&gt;&amp;nbsp; &quot;author&quot;: ObjectId(&quot;user_id&quot;),&lt;/p&gt;&lt;p style=&quot;border-color: var(--border-color); line-height: 80%;&quot;&gt;&amp;nbsp; &quot;categories&quot;: [&quot;Technology&quot;, &quot;Database&quot;],&lt;/p&gt;&lt;p style=&quot;border-color: var(--border-color); line-height: 80%;&quot;&gt;&amp;nbsp; &quot;tags&quot;: [ObjectId(&quot;tag_id_1&quot;), ObjectId(&quot;tag_id_2&quot;)],&lt;/p&gt;&lt;p style=&quot;border-color: var(--border-color); line-height: 80%;&quot;&gt;&amp;nbsp; &quot;createdAt&quot;: ISODate(&quot;2023-01-02T08:00:00Z&quot;),&lt;/p&gt;&lt;p style=&quot;border-color: var(--border-color); line-height: 80%;&quot;&gt;&amp;nbsp; &quot;updatedAt&quot;: ISODate(&quot;2023-01-02T10:30:00Z&quot;),&lt;/p&gt;&lt;p style=&quot;border-color: var(--border-color); line-height: 80%;&quot;&gt;&amp;nbsp; &quot;comments&quot;: [ObjectId(&quot;comment_id_1&quot;), ObjectId(&quot;comment_id_2&quot;)]&lt;/p&gt;&lt;p style=&quot;border-color: var(--border-color); line-height: 80%;&quot;&gt;}&lt;/p&gt;" style="align=left;strokeColor=none;fillColor=none;spacingLeft=4;fontSize=12;verticalAlign=top;resizable=0;rotatable=0;part=1;html=1;" parent="3" vertex="1">
                    <mxGeometry y="50" width="391" height="250" as="geometry"/>
                </mxCell>
                <mxCell id="5" value="&lt;b&gt;&lt;font style=&quot;font-size: 21px;&quot;&gt;Users&lt;/font&gt;&lt;/b&gt;" style="swimlane;childLayout=stackLayout;horizontal=1;startSize=50;horizontalStack=0;rounded=1;fontSize=14;fontStyle=0;strokeWidth=2;resizeParent=0;resizeLast=1;shadow=0;dashed=0;align=center;arcSize=4;whiteSpace=wrap;html=1;" parent="1" vertex="1">
                    <mxGeometry x="990" y="60" width="400" height="350" as="geometry"/>
                </mxCell>
                <mxCell id="6" value="&lt;p style=&quot;border-color: var(--border-color); line-height: 80%;&quot;&gt;&lt;span style=&quot;background-color: initial;&quot;&gt;{&lt;/span&gt;&lt;br&gt;&lt;/p&gt;&lt;p style=&quot;border-color: var(--border-color); line-height: 80%;&quot;&gt;&amp;nbsp; &quot;_id&quot;: ObjectId(&quot;user_id&quot;),&lt;/p&gt;&lt;p style=&quot;border-color: var(--border-color); line-height: 80%;&quot;&gt;&amp;nbsp; &quot;email&quot;: &quot;john.doe@example.com&quot;,&lt;/p&gt;&lt;p style=&quot;border-color: var(--border-color); line-height: 80%;&quot;&gt;&amp;nbsp; &quot;password&quot;: &quot;hashed_password&quot;,&lt;/p&gt;&lt;p style=&quot;border-color: var(--border-color); line-height: 80%;&quot;&gt;&amp;nbsp; &quot;fullname&quot;: &quot;John&quot;,&lt;/p&gt;&lt;p style=&quot;border-color: var(--border-color); line-height: 80%;&quot;&gt;&amp;nbsp; &quot;image&quot;: &quot;profile_picture_url&quot;,&lt;/p&gt;&lt;p style=&quot;border-color: var(--border-color); line-height: 80%;&quot;&gt;&amp;nbsp; &quot;role&quot;: &quot;user&quot;,&lt;/p&gt;&lt;p style=&quot;border-color: var(--border-color); line-height: 80%;&quot;&gt;&amp;nbsp; &quot;isActive&quot;: true,&lt;/p&gt;&lt;p style=&quot;border-color: var(--border-color); line-height: 80%;&quot;&gt;&amp;nbsp; &quot;createdAt&quot;: ISODate(&quot;2023-01-01T12:00:00Z&quot;),&lt;/p&gt;&lt;p style=&quot;border-color: var(--border-color); line-height: 80%;&quot;&gt;&amp;nbsp; &quot;updatedAt&quot;: ISODate(&quot;2023-01-01T12:00:00Z&quot;),&lt;/p&gt;&lt;p style=&quot;border-color: var(--border-color); line-height: 80%;&quot;&gt;&amp;nbsp; &quot;blogs&quot;: [ObjectId(&quot;blog_id_1&quot;), ObjectId(&quot;blog_id_2&quot;)],&lt;/p&gt;&lt;p style=&quot;border-color: var(--border-color); line-height: 80%;&quot;&gt;&amp;nbsp; &quot;comments&quot;: [ObjectId(&quot;comment_id_1&quot;), ObjectId(&quot;comment_id_2&quot;)]&lt;/p&gt;&lt;p style=&quot;border-color: var(--border-color); line-height: 80%;&quot;&gt;}&lt;/p&gt;" style="align=left;strokeColor=none;fillColor=none;spacingLeft=4;fontSize=12;verticalAlign=top;resizable=0;rotatable=0;part=1;html=1;" parent="5" vertex="1">
                    <mxGeometry y="50" width="400" height="300" as="geometry"/>
                </mxCell>
                <mxCell id="7" value="&lt;font style=&quot;font-size: 21px;&quot;&gt;&lt;b&gt;Tags&lt;/b&gt;&lt;/font&gt;" style="swimlane;childLayout=stackLayout;horizontal=1;startSize=50;horizontalStack=0;rounded=1;fontSize=14;fontStyle=0;strokeWidth=2;resizeParent=0;resizeLast=1;shadow=0;dashed=0;align=center;arcSize=4;whiteSpace=wrap;html=1;" parent="1" vertex="1">
                    <mxGeometry x="906" y="511" width="272" height="196" as="geometry"/>
                </mxCell>
                <mxCell id="8" value="&lt;p style=&quot;border-color: var(--border-color); line-height: 80%;&quot;&gt;{&lt;/p&gt;&lt;p style=&quot;border-color: var(--border-color); line-height: 80%;&quot;&gt;&amp;nbsp; &quot;_id&quot;: ObjectId(&quot;tag_id_1&quot;),&lt;/p&gt;&lt;p style=&quot;border-color: var(--border-color); line-height: 80%;&quot;&gt;&amp;nbsp; &quot;name&quot;: &quot;MongoDB&quot;,&lt;/p&gt;&lt;p style=&quot;border-color: var(--border-color); line-height: 80%;&quot;&gt;&amp;nbsp; &quot;createdAt&quot;: ISODate(&quot;2023-01-01T12:00:00Z&quot;),&lt;/p&gt;&lt;p style=&quot;border-color: var(--border-color); line-height: 80%;&quot;&gt;&amp;nbsp; &quot;updatedAt&quot;: ISODate(&quot;2023-01-01T12:00:00Z&quot;)&lt;/p&gt;&lt;p style=&quot;border-color: var(--border-color); line-height: 80%;&quot;&gt;}&lt;/p&gt;" style="align=left;strokeColor=none;fillColor=none;spacingLeft=4;fontSize=12;verticalAlign=top;resizable=0;rotatable=0;part=1;html=1;" parent="7" vertex="1">
                    <mxGeometry y="50" width="272" height="146" as="geometry"/>
                </mxCell>
                <mxCell id="9" style="edgeStyle=orthogonalEdgeStyle;rounded=0;orthogonalLoop=1;jettySize=auto;html=1;" parent="1" source="11" target="4" edge="1">
                    <mxGeometry relative="1" as="geometry"/>
                </mxCell>
                <mxCell id="10" style="edgeStyle=orthogonalEdgeStyle;rounded=0;orthogonalLoop=1;jettySize=auto;html=1;" parent="1" source="11" target="6" edge="1">
                    <mxGeometry relative="1" as="geometry"/>
                </mxCell>
                <mxCell id="11" value="&lt;font style=&quot;font-size: 21px;&quot;&gt;&lt;b&gt;Comments&lt;/b&gt;&lt;/font&gt;" style="swimlane;childLayout=stackLayout;horizontal=1;startSize=50;horizontalStack=0;rounded=1;fontSize=14;fontStyle=0;strokeWidth=2;resizeParent=0;resizeLast=1;shadow=0;dashed=0;align=center;arcSize=4;whiteSpace=wrap;html=1;" parent="1" vertex="1">
                    <mxGeometry x="340" y="663" width="284" height="242" as="geometry"/>
                </mxCell>
                <mxCell id="12" value="&lt;p style=&quot;border-color: var(--border-color); line-height: 80%;&quot;&gt;{&lt;/p&gt;&lt;p style=&quot;border-color: var(--border-color); line-height: 80%;&quot;&gt;&amp;nbsp; &quot;_id&quot;: ObjectId(&quot;comment_id&quot;),&lt;/p&gt;&lt;p style=&quot;border-color: var(--border-color); line-height: 80%;&quot;&gt;&amp;nbsp; &quot;text&quot;: &quot;Great article! Thanks for sharing.&quot;,&lt;/p&gt;&lt;p style=&quot;border-color: var(--border-color); line-height: 80%;&quot;&gt;&amp;nbsp; &quot;user&quot;: ObjectId(&quot;user_id&quot;),&lt;/p&gt;&lt;p style=&quot;border-color: var(--border-color); line-height: 80%;&quot;&gt;&amp;nbsp; &quot;blog&quot;: ObjectId(&quot;blog_id&quot;),&lt;/p&gt;&lt;p style=&quot;border-color: var(--border-color); line-height: 80%;&quot;&gt;&amp;nbsp; &quot;createdAt&quot;: ISODate(&quot;2023-01-03T14:45:00Z&quot;),&lt;/p&gt;&lt;p style=&quot;border-color: var(--border-color); line-height: 80%;&quot;&gt;&amp;nbsp; &quot;updatedAt&quot;: ISODate(&quot;2023-01-03T14:45:00Z&quot;)&lt;/p&gt;&lt;p style=&quot;border-color: var(--border-color); line-height: 80%;&quot;&gt;}&lt;/p&gt;" style="align=left;strokeColor=none;fillColor=none;spacingLeft=4;fontSize=12;verticalAlign=top;resizable=0;rotatable=0;part=1;html=1;" parent="11" vertex="1">
                    <mxGeometry y="50" width="284" height="192" as="geometry"/>
                </mxCell>
                <mxCell id="13" value="&lt;font style=&quot;font-size: 21px;&quot;&gt;&lt;b&gt;Categories&lt;/b&gt;&lt;/font&gt;" style="swimlane;childLayout=stackLayout;horizontal=1;startSize=50;horizontalStack=0;rounded=1;fontSize=14;fontStyle=0;strokeWidth=2;resizeParent=0;resizeLast=1;shadow=0;dashed=0;align=center;arcSize=4;whiteSpace=wrap;html=1;" parent="1" vertex="1">
                    <mxGeometry x="249" y="-84" width="272" height="196" as="geometry"/>
                </mxCell>
                <mxCell id="14" value="&lt;p style=&quot;border-color: var(--border-color); line-height: 80%;&quot;&gt;{&lt;/p&gt;&lt;p style=&quot;border-color: var(--border-color); line-height: 80%;&quot;&gt;&amp;nbsp; &quot;_id&quot;: ObjectId(&quot;category_id_1&quot;),&lt;/p&gt;&lt;p style=&quot;border-color: var(--border-color); line-height: 80%;&quot;&gt;&amp;nbsp; &quot;name&quot;: &quot;Technology&quot;,&lt;/p&gt;&lt;p style=&quot;border-color: var(--border-color); line-height: 80%;&quot;&gt;&amp;nbsp; &quot;createdAt&quot;: ISODate(&quot;2023-01-01T12:00:00Z&quot;),&lt;/p&gt;&lt;p style=&quot;border-color: var(--border-color); line-height: 80%;&quot;&gt;&amp;nbsp; &quot;updatedAt&quot;: ISODate(&quot;2023-01-01T12:00:00Z&quot;)&lt;/p&gt;&lt;p style=&quot;border-color: var(--border-color); line-height: 80%;&quot;&gt;},&lt;/p&gt;" style="align=left;strokeColor=none;fillColor=none;spacingLeft=4;fontSize=12;verticalAlign=top;resizable=0;rotatable=0;part=1;html=1;" parent="13" vertex="1">
                    <mxGeometry y="50" width="272" height="146" as="geometry"/>
                </mxCell>
                <mxCell id="15" style="edgeStyle=orthogonalEdgeStyle;rounded=0;orthogonalLoop=1;jettySize=auto;html=1;" parent="1" source="4" target="7" edge="1">
                    <mxGeometry relative="1" as="geometry"/>
                </mxCell>
                <mxCell id="16" value="&lt;font style=&quot;font-size: 21px;&quot;&gt;&lt;b&gt;TravelPlaces&lt;br&gt;&lt;/b&gt;&lt;/font&gt;" style="swimlane;childLayout=stackLayout;horizontal=1;startSize=50;horizontalStack=0;rounded=1;fontSize=14;fontStyle=0;strokeWidth=2;resizeParent=0;resizeLast=1;shadow=0;dashed=0;align=center;arcSize=4;whiteSpace=wrap;html=1;" parent="1" vertex="1">
                    <mxGeometry x="1499" y="254" width="371" height="264" as="geometry"/>
                </mxCell>
                <mxCell id="22" style="edgeStyle=none;html=1;" parent="16" source="17" target="16" edge="1">
                    <mxGeometry relative="1" as="geometry"/>
                </mxCell>
                <mxCell id="17" value="&lt;p style=&quot;border-color: var(--border-color); line-height: 80%;&quot;&gt;{&lt;/p&gt;&lt;p style=&quot;border-color: var(--border-color); line-height: 80%;&quot;&gt;&amp;nbsp; &quot;_id&quot;: ObjectId(&quot;visiting_place_id&quot;),&lt;/p&gt;&lt;p style=&quot;border-color: var(--border-color); line-height: 80%;&quot;&gt;&amp;nbsp; &quot;name&quot;: &quot;City Park&quot;,&lt;/p&gt;&lt;p style=&quot;border-color: var(--border-color); line-height: 80%;&quot;&gt;&amp;nbsp; &quot;location&quot;: &quot;456 Park Avenue, City&quot;,&lt;/p&gt;&lt;p style=&quot;border-color: var(--border-color); line-height: 80%;&quot;&gt;&amp;nbsp; &quot;reviews&quot;: [ObjectId(&quot;review_id_5&quot;), ObjectId(&quot;review_id_6&quot;)],&lt;/p&gt;&lt;p style=&quot;border-color: var(--border-color); line-height: 80%;&quot;&gt;&amp;nbsp; &quot;createdAt&quot;: ISODate(&quot;2023-01-04T18:30:00Z&quot;),&lt;/p&gt;&lt;p style=&quot;border-color: var(--border-color); line-height: 80%;&quot;&gt;&amp;nbsp; &quot;updatedAt&quot;: ISODate(&quot;2023-01-04T18:30:00Z&quot;),&lt;/p&gt;&lt;p style=&quot;border-color: var(--border-color); line-height: 80%;&quot;&gt;&amp;nbsp; &quot;image&quot;: [&quot;url&quot;]&lt;/p&gt;&lt;p style=&quot;border-color: var(--border-color); line-height: 80%;&quot;&gt;}&lt;/p&gt;" style="align=left;strokeColor=none;fillColor=none;spacingLeft=4;fontSize=12;verticalAlign=top;resizable=0;rotatable=0;part=1;html=1;" parent="16" vertex="1">
                    <mxGeometry y="50" width="371" height="214" as="geometry"/>
                </mxCell>
                <mxCell id="18" value="&lt;font style=&quot;font-size: 21px;&quot;&gt;&lt;b&gt;Foods&lt;br&gt;&lt;/b&gt;&lt;/font&gt;" style="swimlane;childLayout=stackLayout;horizontal=1;startSize=50;horizontalStack=0;rounded=1;fontSize=14;fontStyle=0;strokeWidth=2;resizeParent=0;resizeLast=1;shadow=0;dashed=0;align=center;arcSize=4;whiteSpace=wrap;html=1;" parent="1" vertex="1">
                    <mxGeometry x="1352" y="612" width="341" height="277" as="geometry"/>
                </mxCell>
                <mxCell id="19" value="&lt;p style=&quot;border-color: var(--border-color); line-height: 80%;&quot;&gt;{&lt;/p&gt;&lt;p style=&quot;border-color: var(--border-color); line-height: 80%;&quot;&gt;&amp;nbsp; &quot;_id&quot;: ObjectId(&quot;food_id&quot;),&lt;/p&gt;&lt;p style=&quot;border-color: var(--border-color); line-height: 80%;&quot;&gt;&amp;nbsp; &quot;name&quot;: &quot;Spicy Pasta&quot;,&lt;/p&gt;&lt;p style=&quot;border-color: var(--border-color); line-height: 80%;&quot;&gt;&amp;nbsp; &quot;category&quot;: &quot;Italian&quot;,&lt;/p&gt;&lt;p style=&quot;border-color: var(--border-color); line-height: 80%;&quot;&gt;&amp;nbsp; &quot;reviews&quot;: [ObjectId(&quot;review_id_3&quot;), ObjectId(&quot;review_id_4&quot;)],&lt;br&gt;&lt;/p&gt;&lt;p style=&quot;border-color: var(--border-color); line-height: 80%;&quot;&gt;&amp;nbsp; &quot;image&quot;: [&quot;url&quot;],&lt;br&gt;&lt;/p&gt;&lt;p style=&quot;border-color: var(--border-color); line-height: 80%;&quot;&gt;&amp;nbsp; &quot;createdAt&quot;: ISODate(&quot;2023-01-04T18:30:00Z&quot;),&lt;/p&gt;&lt;p style=&quot;border-color: var(--border-color); line-height: 80%;&quot;&gt;&amp;nbsp; &quot;updatedAt&quot;: ISODate(&quot;2023-01-04T18:30:00Z&quot;),&lt;/p&gt;&lt;p style=&quot;border-color: var(--border-color); line-height: 80%;&quot;&gt;&amp;nbsp; &quot;restaurants&quot;: [objId. objId]&lt;/p&gt;&lt;p style=&quot;border-color: var(--border-color); line-height: 80%;&quot;&gt;}&lt;/p&gt;" style="align=left;strokeColor=none;fillColor=none;spacingLeft=4;fontSize=12;verticalAlign=top;resizable=0;rotatable=0;part=1;html=1;" parent="18" vertex="1">
                    <mxGeometry y="50" width="341" height="227" as="geometry"/>
                </mxCell>
                <mxCell id="20" value="&lt;font style=&quot;font-size: 21px;&quot;&gt;&lt;b&gt;Restaunrants&lt;br&gt;&lt;/b&gt;&lt;/font&gt;" style="swimlane;childLayout=stackLayout;horizontal=1;startSize=50;horizontalStack=0;rounded=1;fontSize=14;fontStyle=0;strokeWidth=2;resizeParent=0;resizeLast=1;shadow=0;dashed=0;align=center;arcSize=4;whiteSpace=wrap;html=1;" parent="1" vertex="1">
                    <mxGeometry x="1897" y="806" width="351" height="243" as="geometry"/>
                </mxCell>
                <mxCell id="21" value="&lt;p style=&quot;border-color: var(--border-color); line-height: 80%;&quot;&gt;{&lt;/p&gt;&lt;p style=&quot;border-color: var(--border-color); line-height: 80%;&quot;&gt;&amp;nbsp; &quot;_id&quot;: ObjectId(&quot;restaurant_id&quot;),&lt;/p&gt;&lt;p style=&quot;border-color: var(--border-color); line-height: 80%;&quot;&gt;&amp;nbsp; &quot;name&quot;: &quot;Delicious Bites&quot;,&lt;/p&gt;&lt;p style=&quot;border-color: var(--border-color); line-height: 80%;&quot;&gt;&amp;nbsp; &quot;location&quot;: &quot;123 Main Street, City&quot;,&lt;/p&gt;&lt;p style=&quot;border-color: var(--border-color); line-height: 80%;&quot;&gt;&amp;nbsp; &quot;reviews&quot;: [ObjectId(&quot;review_id_1&quot;), ObjectId(&quot;review_id_2&quot;)],&lt;/p&gt;&lt;p style=&quot;border-color: var(--border-color); line-height: 80%;&quot;&gt;&amp;nbsp; &quot;image&quot;: [&quot;url&quot;],&lt;br&gt;&lt;/p&gt;&lt;p style=&quot;border-color: var(--border-color); line-height: 80%;&quot;&gt;&amp;nbsp; &quot;createdAt&quot;: ISODate(&quot;2023-01-04T18:30:00Z&quot;),&lt;/p&gt;&lt;p style=&quot;border-color: var(--border-color); line-height: 80%;&quot;&gt;&amp;nbsp; &quot;updatedAt&quot;: ISODate(&quot;2023-01-04T18:30:00Z&quot;)&lt;/p&gt;&lt;p style=&quot;border-color: var(--border-color); line-height: 80%;&quot;&gt;}&lt;/p&gt;" style="align=left;strokeColor=none;fillColor=none;spacingLeft=4;fontSize=12;verticalAlign=top;resizable=0;rotatable=0;part=1;html=1;" parent="20" vertex="1">
                    <mxGeometry y="50" width="351" height="193" as="geometry"/>
                </mxCell>
                <mxCell id="24" value="&lt;font style=&quot;font-size: 21px;&quot;&gt;&lt;b&gt;Reviews&lt;br&gt;&lt;/b&gt;&lt;/font&gt;" style="swimlane;childLayout=stackLayout;horizontal=1;startSize=50;horizontalStack=0;rounded=1;fontSize=14;fontStyle=0;strokeWidth=2;resizeParent=0;resizeLast=1;shadow=0;dashed=0;align=center;arcSize=4;whiteSpace=wrap;html=1;fillColor=#a20025;fontColor=#ffffff;strokeColor=#6F0000;" parent="1" vertex="1">
                    <mxGeometry x="2060" y="309" width="371" height="306" as="geometry"/>
                </mxCell>
                <mxCell id="25" style="edgeStyle=none;html=1;" parent="24" source="26" target="24" edge="1">
                    <mxGeometry relative="1" as="geometry"/>
                </mxCell>
                <mxCell id="26" value="&lt;p style=&quot;border-color: var(--border-color); line-height: 80%;&quot;&gt;{&lt;/p&gt;&lt;p style=&quot;border-color: var(--border-color); line-height: 80%;&quot;&gt;&amp;nbsp; &quot;_id&quot;: ObjectId(&quot;review_id&quot;),&lt;/p&gt;&lt;p style=&quot;border-color: var(--border-color); line-height: 80%;&quot;&gt;&amp;nbsp; &quot;user&quot;: ObjectId(&quot;user_id&quot;),&lt;/p&gt;&lt;p style=&quot;border-color: var(--border-color); line-height: 80%;&quot;&gt;&amp;nbsp; &quot;content&quot;: &quot;A fantastic experience! The food was delicious.&quot;,&lt;/p&gt;&lt;p style=&quot;border-color: var(--border-color); line-height: 80%;&quot;&gt;&amp;nbsp; &quot;rating&quot;: 4.5, // Rating on a scale of 1 to 5&lt;/p&gt;&lt;p style=&quot;border-color: var(--border-color); line-height: 80%;&quot;&gt;&amp;nbsp; &quot;createdAt&quot;: ISODate(&quot;2023-01-04T18:30:00Z&quot;),&lt;/p&gt;&lt;p style=&quot;border-color: var(--border-color); line-height: 80%;&quot;&gt;&amp;nbsp; &quot;updatedAt&quot;: ISODate(&quot;2023-01-04T18:30:00Z&quot;),&lt;/p&gt;&lt;p style=&quot;border-color: var(--border-color); line-height: 80%;&quot;&gt;&amp;nbsp; &quot;restaurant&quot;: ObjectId(&quot;restaurant_id&quot;),&lt;/p&gt;&lt;p style=&quot;border-color: var(--border-color); line-height: 80%;&quot;&gt;&amp;nbsp; &quot;food&quot;: ObjectId(&quot;food_id&quot;),&lt;/p&gt;&lt;p style=&quot;border-color: var(--border-color); line-height: 80%;&quot;&gt;&amp;nbsp; &quot;visitingPlace&quot;: ObjectId(&quot;visiting_place_id&quot;)&lt;/p&gt;&lt;p style=&quot;border-color: var(--border-color); line-height: 80%;&quot;&gt;}&lt;/p&gt;" style="align=left;strokeColor=none;fillColor=none;spacingLeft=4;fontSize=12;verticalAlign=top;resizable=0;rotatable=0;part=1;html=1;" parent="24" vertex="1">
                    <mxGeometry y="50" width="371" height="256" as="geometry"/>
                </mxCell>
            </root>
        </mxGraphModel>
    </diagram>
</mxfile>